<svg xmlns="http://www.w3.org/2000/svg" viewBox="0 0 24 24" fill="currentColor" style="height: 1em;">
  <path d="M12 2C7.03 2 3 3.79 3 6v12c0 2.21 4.03 4 9 4s9-1.79 9-4V6c0-2.21-4.03-4-9-4zm0 2c4.42 0 7 1.49 7 2s-2.58 2-7 2-7-1.49-7-2 2.58-2 7-2zm0 16c-4.42 0-7-1.49-7-2v-1.15c1.58.96 4.27 1.45 7 1.45s5.42-.49 7-1.45V18c0 .51-2.58 2-7 2zm0-4c-4.42 0-7-1.49-7-2v-1.15c1.58.96 4.27 1.45 7 1.45s5.42-.49 7-1.45V14c0 .51-2.58 2-7 2zm0-4c-4.42 0-7-1.49-7-2V8.85c1.58.96 4.27 1.45 7 1.45s5.42-.49 7-1.45V10c0 .51-2.58 2-7 2z"/>
</svg>
